<?xml version="1.0" standalone="no"?>
<svg xmlns="http://www.w3.org/2000/svg" viewBox="0 0 135.863 29" width="135.863" height="29"><g fill="#ead017" color="#ead017" transform="translate(0, 0) scale(0.29)"><svg width="100.0" height="100.0" x="0.0" y="0.0" viewBox="0 0 100 100"><path d="M95,8.539L53,22.986v50.284c-1.832-0.864-4.27-1.001-6.694-0.193c-4.192,1.397-6.74,5.078-5.692,8.222  c1.048,3.144,5.295,4.559,9.487,3.162c3.742-1.247,6.166-4.314,5.899-7.195V32l36-12.397v32.681  c-1.835-0.876-4.286-1.019-6.722-0.207c-4.192,1.397-6.74,5.078-5.692,8.222c1.048,3.144,5.295,4.559,9.487,3.162  c3.525-1.175,5.878-3.965,5.918-6.692H95V8.539z"></path><g><path d="M19,9v43c-1.869-0.892-4.481-0.971-6.963-0.143c-4.269,1.423-6.865,5.172-5.798,8.374c1.067,3.202,5.393,4.644,9.663,3.221   c3.59-1.197,6.047-4.038,6.087-6.816H22V23c0,0,12.926,3.741,17,18C39,24.704,25,22,19,9z"></path><g><path d="M37.423,79H2v2h35.476C37.371,80.333,37.355,79.664,37.423,79z"></path><path d="M98,81v-2H58.9c-0.115,0.68-0.31,1.351-0.591,2H98z"></path><path d="M5.078,64H2v2h5.87C6.789,65.499,5.842,64.824,5.078,64z"></path><path d="M98,66v-2h-3.769c-0.978,0.804-2.112,1.487-3.377,2H98z"></path><path d="M78.401,64H59v2h22.155C80.082,65.501,79.157,64.82,78.401,64z"></path><path d="M21.09,64c-0.996,0.803-2.149,1.486-3.433,2H50v-2H21.09z"></path><rect x="25" y="49" width="25" height="2"></rect><path d="M11.125,49H2v2h5.25c1.106-0.825,2.395-1.508,3.839-1.99C11.101,49.006,11.113,49.004,11.125,49z"></path><path d="M59,51h21.822c1.029-0.725,2.201-1.333,3.507-1.769c0.264-0.088,0.53-0.16,0.796-0.231H59V51z"></path><path d="M32.25,34H25v2h8.595C33.168,35.288,32.718,34.622,32.25,34z"></path><rect x="2" y="34" width="14" height="2"></rect><polygon points="59,36 89,36 89,34 59.406,34 59,34.14   "></polygon><path d="M41.551,36H50v-2h-8.898C41.277,34.642,41.425,35.311,41.551,36z"></path><path d="M32.734,21h18.028c0.335-0.378,0.762-0.678,1.263-0.851L55.366,19H30.686c0.004,0.004,0.008,0.007,0.011,0.011    C31.377,19.668,32.059,20.328,32.734,21z"></path><rect x="2" y="19" width="14" height="2"></rect></g></g></svg></g><line x1="41" y1="1" x2="41" y2="28" stroke="#000000" stroke-linecap="round"></line><path fill="#000000" fill-rule="nonzero" d="M5.06 12.68L5.06 12.68Q5.34 12.63 5.63 12.57Q5.91 12.52 6.23 12.42L6.23 12.42Q5.84 12.05 5.18 11.95L5.18 11.95Q5.11 12.33 5.06 12.68ZM14.65 5.44L14.65 5.44Q14.55 6.45 14.12 7.55Q13.69 8.65 12.91 9.68Q12.14 10.71 11.04 11.60Q9.94 12.49 8.53 13.05L8.53 13.05Q8.74 13.45 8.93 13.90Q9.12 14.34 9.26 14.91L9.26 14.91Q9.47 15.66 9.62 16.45Q9.77 17.25 9.88 18Q9.98 18.75 10.07 19.39Q10.15 20.04 10.20 20.46L10.20 20.46Q10.29 21.16 10.65 21.46Q11.02 21.75 11.47 21.79Q11.93 21.82 12.39 21.68Q12.84 21.54 13.10 21.38L13.10 21.38Q13.08 21.40 12.84 21.79Q12.61 22.17 12.21 22.61Q11.81 23.04 11.26 23.36Q10.71 23.67 10.03 23.55L10.03 23.55Q9.56 23.48 9.20 23.24Q8.84 22.99 8.57 22.51Q8.30 22.03 8.13 21.28Q7.97 20.53 7.92 19.45L7.92 19.45Q7.88 18 7.82 16.68Q7.76 15.35 7.31 14.23L7.31 14.23Q7.24 14.04 7.17 13.86Q7.10 13.69 7.01 13.55L7.01 13.55Q6.05 13.78 4.85 13.85L4.85 13.85Q4.69 14.74 4.50 15.68Q4.31 16.62 4.11 17.51Q3.91 18.40 3.69 19.18Q3.47 19.97 3.26 20.53L3.26 20.53Q3.02 21.12 2.66 21.48Q2.30 21.84 1.50 21.84L1.50 21.84Q1.03 21.84 0.68 21.63Q0.33 21.42 0 21.05L0 21.05Q0.09 20.98 0.29 20.82Q0.49 20.67 0.76 20.21Q1.03 19.76 1.35 18.91Q1.66 18.07 1.99 16.64L1.99 16.64Q2.11 16.05 2.31 15.27Q2.51 14.48 2.74 13.55L2.74 13.55Q1.80 13.03 1.88 12.16L1.88 12.16Q1.92 11.63 2.37 11.25Q2.81 10.88 3.45 10.73L3.45 10.73Q3.75 9.52 4.07 8.27Q4.38 7.03 4.66 5.94Q4.95 4.85 5.18 3.97Q5.41 3.09 5.55 2.58L5.55 2.58Q5.13 2.86 4.71 3.21L4.71 3.21Q4.34 3.52 3.90 3.90Q3.47 4.29 3.09 4.71L3.09 4.71Q2.91 4.57 2.79 4.41Q2.67 4.24 2.60 4.13L2.60 4.13Q2.51 3.98 2.46 3.82L2.46 3.82Q2.30 3.49 2.30 3.11Q2.30 2.72 2.86 2.32L2.86 2.32Q3.16 2.11 3.79 1.71Q4.41 1.31 5.32 0.94Q6.23 0.56 7.44 0.28Q8.65 0 10.13 0L10.13 0Q11.60 0 12.52 0.59Q13.43 1.17 13.92 2.02Q14.41 2.86 14.57 3.80Q14.72 4.73 14.65 5.44ZM7.57 11.88L7.57 11.88Q8.39 11.48 9.20 10.90Q10.01 10.31 10.66 9.49Q11.32 8.67 11.77 7.63Q12.21 6.59 12.33 5.27L12.33 5.27Q12.42 4.10 12.18 3.32Q11.93 2.53 11.45 2.06Q10.97 1.59 10.36 1.39Q9.75 1.20 9.14 1.20L9.14 1.20Q8.58 1.20 8.00 1.36Q7.43 1.52 6.89 1.78L6.89 1.78Q6.96 1.80 7.05 1.90L7.05 1.90Q7.10 1.97 7.16 2.07Q7.22 2.18 7.24 2.30L7.24 2.30Q6.70 4.57 6.38 6.09Q6.05 7.62 5.84 8.58L5.84 8.58Q5.58 9.70 5.46 10.38L5.46 10.38Q5.44 10.48 5.43 10.57Q5.41 10.66 5.39 10.78L5.39 10.78Q5.91 10.90 6.47 11.14Q7.03 11.39 7.57 11.88ZM21.23 14.02L21.23 14.02Q21 14.91 20.60 15.68Q20.20 16.45 19.65 17.02Q19.10 17.58 18.41 17.89Q17.72 18.21 16.90 18.21L16.90 18.21Q15.94 18.21 15.39 17.80Q14.84 17.39 14.57 16.78Q14.30 16.17 14.24 15.45Q14.18 14.72 14.18 14.09L14.18 14.09Q14.18 13.64 14.29 13.10Q14.39 12.56 14.58 12Q14.77 11.44 15.06 10.88Q15.35 10.31 15.75 9.84L15.75 9.84Q15.89 9.45 16.18 9.14Q16.48 8.84 16.86 8.64Q17.25 8.44 17.70 8.33Q18.14 8.23 18.56 8.23L18.56 8.23Q18.63 8.23 18.69 8.25Q18.75 8.27 18.82 8.30L18.82 8.30Q19.13 8.32 19.58 8.53Q20.04 8.74 20.47 9.16Q20.91 9.59 21.21 10.23Q21.52 10.88 21.52 11.79L21.52 11.79Q21.52 11.98 21.49 12.25Q21.47 12.52 21.45 12.70L21.45 12.70Q21.98 12.49 22.57 12.19Q23.16 11.88 23.71 11.54Q24.26 11.20 24.73 10.85Q25.20 10.50 25.48 10.22L25.48 10.22Q25.71 10.01 25.88 9.98Q26.04 9.96 26.11 10.08Q26.18 10.20 26.13 10.41Q26.09 10.62 25.88 10.88L25.88 10.88Q25.76 11.02 25.28 11.44Q24.80 11.86 24.14 12.35Q23.48 12.84 22.71 13.31Q21.94 13.78 21.23 14.02ZM17.27 10.45L17.27 10.45Q17.20 10.66 17.20 10.90L17.20 10.90Q17.20 11.27 17.25 11.68Q17.30 12.09 17.48 12.42Q17.67 12.75 18.08 12.97Q18.49 13.20 19.22 13.20L19.22 13.20Q19.34 13.20 19.45 13.18Q19.57 13.17 19.69 13.15L19.69 13.15Q19.76 12.84 19.82 12.60Q19.88 12.35 19.88 12.16L19.88 12.16Q19.92 11.72 19.88 11.25Q19.83 10.78 19.70 10.39Q19.57 10.01 19.37 9.76Q19.17 9.52 18.89 9.52L18.89 9.52Q18.45 9.52 18.04 9.76Q17.63 10.01 17.27 10.45ZM15.77 14.58L15.77 14.58Q15.77 15 15.82 15.41Q15.87 15.82 16.01 16.14Q16.15 16.45 16.38 16.65Q16.62 16.85 16.99 16.85L16.99 16.85Q17.41 16.85 17.77 16.65Q18.12 16.45 18.40 16.14Q18.68 15.82 18.90 15.41Q19.13 15 19.29 14.55L19.29 14.55Q19.13 14.58 18.97 14.59Q18.82 14.60 18.63 14.60L18.63 14.60Q17.74 14.60 17.10 14.07Q16.45 13.55 16.10 12.73L16.10 12.73Q15.96 13.22 15.87 13.69Q15.77 14.16 15.77 14.58ZM27.73 16.95L27.73 16.95Q28.45 16.95 29.33 16.37Q30.21 15.80 31.04 15.02Q31.88 14.25 32.57 13.44Q33.26 12.63 33.61 12.14L33.61 12.14Q33.82 11.84 34.01 11.78Q34.20 11.72 34.29 11.84Q34.38 11.95 34.36 12.20Q34.34 12.45 34.15 12.75L34.15 12.75Q33.98 13.03 33.60 13.56Q33.21 14.09 32.68 14.71Q32.16 15.33 31.49 15.97Q30.82 16.62 30.09 17.14Q29.37 17.67 28.59 18.01Q27.82 18.35 27.07 18.35L27.07 18.35Q26.04 18.35 25.35 17.96Q24.66 17.58 24.25 16.97Q23.84 16.36 23.67 15.62Q23.51 14.88 23.51 14.16L23.51 14.16Q23.51 13.43 23.84 12.35Q24.16 11.27 24.81 10.28Q25.45 9.28 26.44 8.57Q27.42 7.85 28.76 7.85L28.76 7.85Q29.51 7.85 30.04 8.37Q30.56 8.88 30.54 9.77L30.54 9.77Q30.54 10.20 30.40 10.61Q30.26 11.02 30.02 11.33Q29.79 11.65 29.47 11.84Q29.16 12.02 28.78 12.02L28.78 12.02Q28.48 12.02 28.32 11.80Q28.17 11.58 28.14 11.29Q28.10 10.99 28.14 10.71Q28.17 10.43 28.22 10.34L28.22 10.34Q28.34 10.17 28.48 10.10Q28.62 10.03 28.80 9.94L28.80 9.94Q28.95 9.87 29.03 9.73Q29.11 9.59 29.11 9.42Q29.11 9.26 29.02 9.14Q28.92 9.02 28.71 9.02L28.71 9.02Q28.50 9.02 27.95 9.36Q27.40 9.70 26.82 10.37Q26.25 11.04 25.80 12.05Q25.36 13.05 25.34 14.39L25.34 14.39Q25.31 15.16 25.55 15.66Q25.78 16.15 26.13 16.43Q26.48 16.71 26.91 16.83Q27.33 16.95 27.73 16.95ZM44.48 13.08L44.48 13.08Q43.95 13.97 43.25 14.92Q42.56 15.87 41.79 16.65Q41.02 17.44 40.20 17.95Q39.38 18.47 38.55 18.47L38.55 18.47Q37.73 18.47 37.37 17.92Q37.01 17.37 37.03 16.69L37.03 16.69Q37.03 16.38 37.09 16.15Q37.15 15.91 37.22 15.73Q37.29 15.54 37.37 15.34Q37.45 15.14 37.52 14.88L37.52 14.88Q37.62 14.58 37.54 14.33Q37.45 14.09 37.34 13.90L37.34 13.90Q37.13 14.13 36.86 14.31Q36.59 14.48 36.19 14.48L36.19 14.48Q35.91 14.48 35.67 14.21Q35.44 13.95 35.44 13.55L35.44 13.55Q35.44 13.22 35.59 13.01Q35.74 12.80 35.94 12.68Q36.14 12.56 36.35 12.52Q36.56 12.47 36.70 12.47L36.70 12.47Q36.77 12.47 37.00 12.49Q37.22 12.52 37.48 12.56L37.48 12.56Q38.32 11.88 38.68 11.33Q39.05 10.78 38.74 10.34L38.74 10.34Q38.55 10.03 38.27 10.02Q37.99 10.01 37.69 10.16Q37.38 10.31 37.09 10.55Q36.80 10.78 36.56 10.99L36.56 10.99Q36.09 11.46 35.52 12.11Q34.95 12.75 34.57 13.17L34.57 13.17Q34.41 13.88 34.24 14.65L34.24 14.65Q34.10 15.33 33.93 16.18Q33.75 17.04 33.56 17.95L33.56 17.95Q33.42 18.02 33.27 18.06Q33.12 18.09 33 18.12L33 18.12Q32.86 18.14 32.72 18.14L32.72 18.14Q32.53 18.14 32.37 18.13Q32.20 18.12 32.10 18.01Q31.99 17.91 31.98 17.67Q31.97 17.44 32.11 17.02L32.11 17.02Q32.30 16.41 32.58 15.39Q32.86 14.37 33.16 13.15Q33.47 11.93 33.79 10.61Q34.10 9.28 34.38 8.07Q34.66 6.87 34.86 5.89Q35.06 4.92 35.16 4.36L35.16 4.36Q35.23 3.75 35.30 3.19L35.30 3.19Q35.34 2.72 35.36 2.26Q35.37 1.80 35.30 1.57L35.30 1.57Q35.41 1.45 35.63 1.36Q35.84 1.27 36.09 1.22L36.09 1.22Q36.35 1.15 36.70 1.10L36.70 1.10Q37.10 1.05 37.37 1.08Q37.64 1.10 37.76 1.31L37.76 1.31Q37.90 1.55 37.82 2.10Q37.73 2.65 37.48 3.63L37.48 3.63Q37.15 4.90 36.81 5.94Q36.47 6.98 36.15 7.90Q35.84 8.81 35.54 9.67Q35.25 10.52 35.02 11.41L35.02 11.41Q35.48 10.73 36.19 9.97Q36.89 9.21 37.78 8.72L37.78 8.72Q38.72 8.23 39.33 8.23L39.33 8.23Q40.08 8.23 40.41 8.73Q40.73 9.23 40.71 9.91L40.71 9.91Q40.69 10.45 40.44 10.91Q40.20 11.37 39.84 11.75Q39.49 12.14 39.09 12.42Q38.70 12.70 38.41 12.89L38.41 12.89Q38.74 13.08 38.99 13.39Q39.23 13.71 39.21 14.18L39.21 14.18Q39.19 14.81 38.96 15.29Q38.74 15.77 38.74 16.17L38.74 16.17Q38.77 16.48 38.87 16.62Q38.98 16.76 39.33 16.76L39.33 16.76Q39.96 16.76 40.65 16.22Q41.34 15.68 41.95 14.98Q42.56 14.27 43.08 13.58Q43.59 12.89 43.88 12.56L43.88 12.56Q44.27 12.14 44.54 12.34Q44.81 12.54 44.48 13.08ZM46.69 6.68L46.69 6.68Q46.57 7.10 46.39 7.89Q46.22 8.67 46.02 9.68Q45.82 10.69 45.60 11.80Q45.38 12.91 45.20 13.99Q45.02 15.07 44.88 16.02Q44.74 16.97 44.72 17.63L44.72 17.63Q44.70 18.35 44.72 19.05L44.72 19.05Q44.74 19.66 44.80 20.33Q44.86 21 45.02 21.52L45.02 21.52Q44.63 21.70 44.32 21.79Q44.02 21.87 43.83 21.91L43.83 21.91Q43.59 21.96 43.43 21.96L43.43 21.96Q43.24 21.96 42.98 21.93Q42.73 21.89 42.52 21.68Q42.30 21.47 42.16 21.02Q42.02 20.58 42.07 19.73L42.07 19.73Q42.09 19.17 42.25 18.34Q42.40 17.51 42.61 16.51Q42.82 15.52 43.09 14.45Q43.36 13.38 43.62 12.36Q43.88 11.34 44.10 10.43Q44.32 9.52 44.48 8.86L44.48 8.86Q44.70 8.02 44.95 6.89L44.95 6.89Q45.40 4.97 46.29 1.13L46.29 1.13Q46.45 1.01 46.64 0.90Q46.83 0.80 46.97 0.73L46.97 0.73Q47.13 0.63 47.30 0.59L47.30 0.59Q48.05 0.30 48.36 0.52Q48.68 0.73 48.73 1.36L48.73 1.36Q48.75 1.78 48.83 2.58Q48.91 3.38 48.98 4.36Q49.05 5.34 49.10 6.39Q49.15 7.43 49.15 8.32L49.15 8.32Q49.15 8.91 49.17 9.70Q49.20 10.50 49.24 11.39Q49.29 12.28 49.36 13.21Q49.43 14.13 49.52 14.98Q49.62 15.82 49.72 16.52Q49.83 17.23 49.95 17.67L49.95 17.67Q49.99 17.86 50.05 18.02Q50.11 18.19 50.16 18.35L50.16 18.35Q50.30 17.79 50.47 17.02Q50.65 16.24 50.85 15.36Q51.05 14.48 51.23 13.56Q51.42 12.63 51.56 11.81L51.56 11.81Q51.68 11.16 51.82 10.13Q51.96 9.09 52.15 7.90L52.15 7.90Q51.89 7.80 51.66 7.71L51.66 7.71Q51.45 7.62 51.23 7.48Q51.02 7.34 50.88 7.15L50.88 7.15Q50.91 6.84 50.94 6.70Q50.98 6.56 51.16 6.68L51.16 6.68Q51.30 6.75 51.60 6.84Q51.89 6.94 52.29 6.98L52.29 6.98Q52.41 6.33 52.56 5.67Q52.71 5.02 52.88 4.41L52.88 4.41Q53.13 3.40 53.46 2.59Q53.79 1.78 54.22 1.22Q54.66 0.66 55.24 0.35Q55.83 0.05 56.60 0.02L56.60 0.02Q57.33 0.02 57.79 0.62Q58.24 1.22 58.17 2.70L58.17 2.70Q58.13 3.80 57.71 4.68Q57.30 5.55 56.72 6.22Q56.13 6.89 55.43 7.32Q54.73 7.76 54.09 7.95L54.09 7.95Q53.88 9.05 53.70 10.16Q53.51 11.27 53.33 12.32Q53.16 13.36 52.98 14.30Q52.80 15.23 52.64 15.96L52.64 15.96Q52.48 16.66 52.29 17.48L52.29 17.48Q52.13 18.19 51.89 19.10Q51.66 20.02 51.40 21.02L51.40 21.02Q51.30 21.23 51.16 21.39Q51.02 21.54 50.88 21.63L50.88 21.63Q50.72 21.75 50.55 21.82L50.55 21.82Q50.09 22.01 49.76 21.89Q49.43 21.77 49.17 21.26L49.17 21.26Q48.91 20.72 48.71 19.92Q48.52 19.13 48.30 18.19L48.30 18.19Q48.09 17.18 47.99 16.00Q47.88 14.81 47.82 13.58Q47.77 12.35 47.74 11.13Q47.72 9.91 47.65 8.84L47.65 8.84Q47.53 7.43 47.41 6.32Q47.30 5.20 47.16 4.43L47.16 4.43Q47.06 4.90 46.95 5.48Q46.83 6.07 46.69 6.68ZM54.56 5.70L54.56 5.70Q54.45 6.14 54.38 6.54L54.38 6.54Q54.94 6.21 55.43 5.71Q55.92 5.20 56.27 4.64Q56.63 4.08 56.82 3.52Q57.02 2.95 57.05 2.48L57.05 2.48Q57.07 2.16 56.99 1.96Q56.91 1.76 56.70 1.76L56.70 1.76Q56.58 1.76 56.33 1.89Q56.09 2.02 55.78 2.43Q55.48 2.84 55.16 3.61Q54.84 4.38 54.56 5.70ZM64.66 11.81L64.66 11.81Q64.76 11.67 64.91 11.64Q65.06 11.60 65.16 11.67Q65.25 11.74 65.26 11.91Q65.27 12.07 65.13 12.35L65.13 12.35Q64.66 13.24 63.90 14.27Q63.14 15.30 62.30 16.21Q61.45 17.11 60.66 17.70Q59.86 18.28 59.32 18.28L59.32 18.28Q58.55 18.28 58.03 17.98Q57.52 17.67 57.22 17.23Q56.93 16.78 56.81 16.25Q56.70 15.73 56.74 15.28L56.74 15.28Q56.77 14.91 56.91 13.93Q57.05 12.96 57.28 11.68Q57.52 10.41 57.81 8.94Q58.10 7.48 58.43 6.12L58.43 6.12Q58.03 6.16 57.63 6.21Q57.23 6.26 56.91 6.26L56.91 6.26Q56.16 6.26 55.49 6.08Q54.82 5.91 54.49 5.74L54.49 5.74Q54.30 5.65 54.33 5.47Q54.35 5.30 54.47 5.12Q54.59 4.95 54.76 4.82Q54.94 4.69 55.08 4.69L55.08 4.69Q55.52 4.73 56.04 4.77Q56.55 4.80 57.16 4.78L57.16 4.78Q57.61 4.76 58.02 4.71Q58.43 4.66 58.83 4.59L58.83 4.59Q59.13 3.47 59.43 2.64Q59.72 1.80 59.95 1.48L59.95 1.48Q60.02 1.36 60.27 1.28Q60.52 1.20 60.80 1.16Q61.08 1.13 61.34 1.16Q61.59 1.20 61.71 1.34L61.71 1.34Q61.83 1.52 61.80 2.30Q61.78 3.07 61.55 4.27L61.55 4.27Q62.53 4.27 63.29 4.37Q64.05 4.48 64.59 4.61Q65.13 4.73 65.46 4.86Q65.79 4.99 65.95 5.04L65.95 5.04Q66.12 5.09 66.13 5.27Q66.14 5.46 66.06 5.66Q65.98 5.86 65.79 6Q65.60 6.14 65.37 6.09L65.37 6.09Q65.13 6.07 64.84 6Q64.55 5.93 64.14 5.88Q63.73 5.84 63.16 5.79Q62.60 5.74 61.85 5.74L61.85 5.74Q61.71 5.74 61.54 5.75Q61.36 5.77 61.17 5.77L61.17 5.77Q61.08 6.14 61.00 6.50Q60.91 6.87 60.77 7.27L60.77 7.27Q60.47 8.20 60.07 9.30L60.07 9.30Q59.72 10.27 59.23 11.51Q58.73 12.75 58.13 14.16L58.13 14.16Q57.98 15.16 58.16 15.69Q58.34 16.22 58.59 16.45L58.59 16.45Q58.90 16.71 59.34 16.73L59.34 16.73Q59.70 16.78 60.20 16.49Q60.70 16.20 61.24 15.70Q61.78 15.21 62.33 14.63Q62.88 14.04 63.35 13.48Q63.82 12.91 64.17 12.46Q64.52 12 64.66 11.81ZM62.37 17.63L62.37 17.63Q62.20 17.88 62.00 17.96Q61.80 18.05 61.65 17.99Q61.50 17.93 61.45 17.74Q61.41 17.55 61.55 17.27L61.55 17.27Q61.62 17.13 61.86 16.64Q62.11 16.15 62.45 15.46Q62.79 14.77 63.19 13.96Q63.59 13.15 63.95 12.42Q64.31 11.70 64.62 11.12Q64.92 10.55 65.06 10.29L65.06 10.29Q64.80 10.05 64.71 9.95Q64.62 9.84 64.57 9.49L64.57 9.49Q64.52 9.19 64.71 8.70Q64.90 8.20 65.20 7.75Q65.51 7.29 65.88 6.96Q66.26 6.63 66.61 6.63L66.61 6.63Q67.27 6.63 67.54 7.05Q67.80 7.48 67.85 7.92L67.85 7.92Q67.90 8.23 67.80 8.70Q67.71 9.16 67.45 9.54L67.45 9.54Q67.52 9.59 67.64 9.64Q67.76 9.70 68.02 9.70L68.02 9.70Q68.39 9.70 68.54 9.66Q68.70 9.61 69.02 9.61L69.02 9.61Q69.42 9.61 69.68 9.81Q69.94 10.01 70.10 10.30Q70.27 10.59 70.35 10.93Q70.43 11.27 70.45 11.55L70.45 11.55Q70.52 12.14 70.15 12.77Q69.77 13.41 69.23 14.16L69.23 14.16Q68.91 14.63 68.58 15.21Q68.25 15.80 68.30 16.27L68.30 16.27Q68.34 16.57 68.46 16.76Q68.58 16.95 69.12 16.95L69.12 16.95Q69.52 16.95 70.00 16.65Q70.48 16.36 70.98 15.90Q71.48 15.45 71.98 14.89Q72.47 14.34 72.89 13.82Q73.31 13.29 73.61 12.87Q73.90 12.45 74.04 12.26L74.04 12.26Q74.16 12.07 74.34 12Q74.53 11.93 74.67 12Q74.81 12.07 74.85 12.28Q74.88 12.49 74.67 12.84L74.67 12.84Q74.53 13.08 74.19 13.59Q73.85 14.11 73.37 14.74Q72.89 15.38 72.30 16.04Q71.72 16.71 71.07 17.26Q70.43 17.81 69.79 18.16Q69.14 18.52 68.55 18.52L68.55 18.52Q67.95 18.52 67.55 18.28Q67.15 18.05 66.90 17.71Q66.66 17.37 66.55 16.96Q66.45 16.55 66.47 16.20L66.47 16.20Q66.49 15.91 66.62 15.60Q66.75 15.28 66.93 14.94Q67.10 14.60 67.30 14.26Q67.50 13.92 67.66 13.59L67.66 13.59Q68.06 12.91 68.31 12.43Q68.55 11.95 68.55 11.63L68.55 11.63Q68.55 11.41 68.46 11.25Q68.37 11.09 68.16 11.09L68.16 11.09Q68.02 11.09 67.96 11.10Q67.90 11.11 67.84 11.11Q67.78 11.11 67.68 11.12Q67.57 11.13 67.36 11.13L67.36 11.13Q67.05 11.13 66.84 11.04Q66.63 10.95 66.45 10.90L66.45 10.90Q66.35 11.06 66.02 11.60Q65.70 12.14 65.26 12.87Q64.83 13.59 64.35 14.39Q63.87 15.19 63.45 15.88Q63.02 16.57 62.73 17.05Q62.44 17.53 62.37 17.63ZM79.95 14.02L79.95 14.02Q79.71 14.91 79.31 15.68Q78.91 16.45 78.36 17.02Q77.81 17.58 77.12 17.89Q76.43 18.21 75.61 18.21L75.61 18.21Q74.65 18.21 74.10 17.80Q73.55 17.39 73.28 16.78Q73.01 16.17 72.95 15.45Q72.89 14.72 72.89 14.09L72.89 14.09Q72.89 13.64 73.00 13.10Q73.10 12.56 73.29 12Q73.48 11.44 73.77 10.88Q74.06 10.31 74.46 9.84L74.46 9.84Q74.60 9.45 74.89 9.14Q75.19 8.84 75.57 8.64Q75.96 8.44 76.41 8.33Q76.85 8.23 77.27 8.23L77.27 8.23Q77.34 8.23 77.40 8.25Q77.46 8.27 77.53 8.30L77.53 8.30Q77.84 8.32 78.29 8.53Q78.75 8.74 79.18 9.16Q79.62 9.59 79.92 10.23Q80.23 10.88 80.23 11.79L80.23 11.79Q80.23 11.98 80.20 12.25Q80.18 12.52 80.16 12.70L80.16 12.70Q80.70 12.49 81.28 12.19Q81.87 11.88 82.42 11.54Q82.97 11.20 83.44 10.85Q83.91 10.50 84.19 10.22L84.19 10.22Q84.42 10.01 84.59 9.98Q84.75 9.96 84.82 10.08Q84.89 10.20 84.84 10.41Q84.80 10.62 84.59 10.88L84.59 10.88Q84.47 11.02 83.99 11.44Q83.51 11.86 82.85 12.35Q82.20 12.84 81.42 13.31Q80.65 13.78 79.95 14.02ZM75.98 10.45L75.98 10.45Q75.91 10.66 75.91 10.90L75.91 10.90Q75.91 11.27 75.96 11.68Q76.01 12.09 76.20 12.42Q76.38 12.75 76.79 12.97Q77.20 13.20 77.93 13.20L77.93 13.20Q78.05 13.20 78.16 13.18Q78.28 13.17 78.40 13.15L78.40 13.15Q78.47 12.84 78.53 12.60Q78.59 12.35 78.59 12.16L78.59 12.16Q78.63 11.72 78.59 11.25Q78.54 10.78 78.41 10.39Q78.28 10.01 78.08 9.76Q77.88 9.52 77.60 9.52L77.60 9.52Q77.16 9.52 76.75 9.76Q76.34 10.01 75.98 10.45ZM74.48 14.58L74.48 14.58Q74.48 15 74.53 15.41Q74.58 15.82 74.72 16.14Q74.86 16.45 75.09 16.65Q75.33 16.85 75.70 16.85L75.70 16.85Q76.13 16.85 76.48 16.65Q76.83 16.45 77.11 16.14Q77.39 15.82 77.61 15.41Q77.84 15 78 14.55L78 14.55Q77.84 14.58 77.68 14.59Q77.53 14.60 77.34 14.60L77.34 14.60Q76.45 14.60 75.81 14.07Q75.16 13.55 74.81 12.73L74.81 12.73Q74.67 13.22 74.58 13.69Q74.48 14.16 74.48 14.58Z" transform="translate(51, 2.707)"></path></svg>